<svg xmlns="http://www.w3.org/2000/svg" xmlns:xlink="http://www.w3.org/1999/xlink" width="604" zoomAndPan="magnify" viewBox="0 0 452.88 248.250006" height="331" preserveAspectRatio="xMidYMid meet" version="1.0"><defs><g/><clipPath id="26832644b4"><path d="M 0.851562 0.242188 L 216.539062 0.242188 L 216.539062 244.753906 L 0.851562 244.753906 Z M 0.851562 0.242188 " clip-rule="nonzero"/></clipPath><clipPath id="e49c6ef4f7"><path d="M 4 2.382812 L 97 2.382812 L 97 151 L 4 151 Z M 4 2.382812 " clip-rule="nonzero"/></clipPath><clipPath id="40678e3d4c"><path d="M 216.539062 10 L 451 10 L 451 243 L 216.539062 243 Z M 216.539062 10 " clip-rule="nonzero"/></clipPath></defs><g clip-path="url(#26832644b4)"><path fill="#e55f34" d="M 0.851562 0.242188 L 216.539062 0.242188 L 216.539062 244.578125 L 0.851562 244.578125 Z M 0.851562 0.242188 " fill-opacity="1" fill-rule="nonzero"/></g><g clip-path="url(#e49c6ef4f7)"><path fill="#ffffff" d="M 91.074219 102.40625 C 90.058594 99.488281 88.996094 96.421875 88.066406 93.460938 C 87.632812 92.042969 86.394531 91.097656 85 90.980469 C 82.816406 85.3125 78.839844 75.632812 73.816406 64.941406 C 67.742188 52.003906 60.144531 37.601562 52.367188 27.027344 C 47.941406 21.015625 43.425781 16.246094 39.027344 13.582031 C 40.375 11.832031 42.003906 10.683594 43.933594 10.308594 C 44.15625 10.261719 44.367188 10.234375 44.589844 10.203125 C 46.371094 10.007812 47.925781 9.859375 49.617188 9.8125 C 51.277344 9.769531 53.054688 9.828125 55.285156 10.070312 L 55.402344 12.191406 C 58.648438 13.6875 61.074219 15.226562 63.40625 15.109375 C 67.324219 14.898438 71.152344 13.132812 70.898438 8.46875 C 70.644531 3.800781 66.652344 2.457031 62.746094 2.664062 C 60.414062 2.785156 58.171875 4.578125 55.105469 6.417969 L 55.148438 7.40625 C 52.980469 7.195312 51.203125 7.136719 49.554688 7.183594 C 47.808594 7.226562 46.175781 7.390625 44.320312 7.585938 C 44.007812 7.617188 43.707031 7.660156 43.425781 7.71875 C 40.671875 8.257812 38.460938 9.917969 36.679688 12.402344 C 33.867188 11.207031 31.117188 10.9375 28.484375 11.894531 C 28.214844 11.996094 27.929688 12.101562 27.644531 12.238281 C 25.957031 13.03125 24.492188 13.734375 22.964844 14.601562 C 21.53125 15.40625 20.046875 16.394531 18.300781 17.695312 L 17.835938 16.828125 C 14.246094 16.84375 11.402344 16.46875 9.355469 17.578125 C 5.902344 19.429688 3.195312 22.660156 5.390625 26.773438 C 7.605469 30.902344 11.792969 30.421875 15.246094 28.570312 C 17.3125 27.460938 18.582031 24.890625 20.570312 21.929688 L 19.570312 20.058594 C 21.351562 18.699219 22.832031 17.726562 24.28125 16.902344 C 25.746094 16.066406 27.152344 15.394531 28.78125 14.628906 C 28.976562 14.539062 29.1875 14.449219 29.394531 14.375 C 31.25 13.703125 33.226562 13.835938 35.289062 14.628906 C 32.894531 19.191406 31.519531 25.609375 30.863281 33.039062 C 29.695312 46.125 30.683594 62.382812 32.207031 76.578125 C 33.449219 88.183594 35.050781 98.414062 36.125 104.425781 C 34.464844 105.054688 33.480469 106.832031 33.929688 108.597656 C 34.675781 111.617188 35.347656 114.789062 36.007812 117.808594 C 40.476562 138.628906 43.46875 152.613281 73.980469 149.652344 C 74.070312 149.636719 74.160156 149.605469 74.25 149.589844 C 74.367188 149.578125 74.472656 149.546875 74.59375 149.515625 C 74.710938 149.488281 74.816406 149.441406 74.921875 149.398438 C 75.011719 149.367188 75.101562 149.351562 75.175781 149.308594 C 102.769531 136.027344 98.074219 122.519531 91.074219 102.40625 Z M 72.632812 142.621094 C 49.0625 144.714844 46.59375 133.273438 42.960938 116.316406 C 42.332031 113.398438 41.675781 110.332031 40.824219 106.890625 C 40.554688 105.800781 39.789062 104.976562 38.847656 104.542969 C 37.785156 98.667969 36.125 88.226562 34.855469 76.308594 C 33.34375 62.234375 32.371094 46.15625 33.507812 33.28125 C 34.152344 26.085938 35.4375 19.953125 37.621094 15.796875 C 41.644531 18.203125 45.9375 22.78125 50.214844 28.597656 C 57.886719 39.007812 65.394531 53.261719 71.390625 66.0625 C 76.328125 76.578125 80.246094 86.089844 82.429688 91.742188 C 81.335938 92.625 80.828125 94.121094 81.261719 95.554688 C 82.324219 98.949219 83.355469 101.898438 84.328125 104.722656 C 90.042969 121.117188 93.871094 132.167969 72.632812 142.621094 Z M 72.632812 142.621094 " fill-opacity="1" fill-rule="evenodd"/></g><path fill="#ffffff" d="M 444.898438 24.1875 C 439.902344 17.144531 432.46875 12.460938 423.960938 11.011719 C 415.449219 9.558594 406.882812 11.503906 399.835938 16.5 C 392.792969 21.496094 388.113281 28.929688 386.660156 37.4375 C 385.210938 45.949219 387.152344 54.515625 392.148438 61.5625 C 395.515625 66.316406 400.152344 70.085938 405.566406 72.449219 L 407.824219 73.4375 L 406.460938 75.5 C 406.417969 75.574219 406.386719 75.636719 406.371094 75.710938 L 404.351562 87.554688 C 404.324219 87.75 404.398438 87.914062 404.457031 87.972656 C 404.519531 88.0625 404.636719 88.167969 404.816406 88.210938 L 407.644531 88.691406 L 407.285156 90.753906 C 399.449219 135.367188 374.933594 174.730469 338.25 201.609375 C 301.457031 228.558594 256.367188 240.015625 211.273438 233.867188 C 155.96875 226.328125 107.347656 192.484375 80.800781 143.160156 C 79.722656 143.742188 78.675781 144.371094 77.597656 145.015625 C 76.761719 145.507812 75.910156 146.015625 75.027344 146.511719 C 80.5 156.664062 86.976562 166.328125 94.273438 175.269531 C 123.484375 211.058594 164.714844 234.210938 210.390625 240.433594 C 257.1875 246.820312 304 234.914062 342.210938 206.933594 C 380.320312 179.023438 405.757812 138.148438 413.878906 91.832031 L 414.238281 89.796875 L 416.289062 90.140625 C 416.601562 90.1875 416.75 90.140625 416.839844 90.082031 L 416.871094 90.066406 C 416.945312 90.023438 417.066406 89.902344 417.109375 89.707031 L 419.128906 77.863281 C 419.144531 77.789062 419.144531 77.714844 419.113281 77.640625 L 418.515625 75.246094 L 420.984375 75.066406 C 426.863281 74.632812 432.484375 72.613281 437.242188 69.25 C 444.285156 64.253906 448.964844 56.820312 450.417969 48.3125 C 451.839844 39.816406 449.878906 31.246094 444.898438 24.1875 Z M 418.859375 55.757812 C 411.890625 55.757812 406.238281 50.105469 406.238281 43.136719 C 406.238281 36.167969 411.890625 30.511719 418.859375 30.511719 C 425.828125 30.511719 431.484375 36.167969 431.484375 43.136719 C 431.484375 50.105469 425.828125 55.757812 418.859375 55.757812 Z M 418.859375 55.757812 " fill-opacity="1" fill-rule="nonzero"/><g fill="#e55f34" fill-opacity="1"><g transform="translate(223.09236, 133.802934)"><g><path d="M 45.015625 -2.09375 L 45.015625 0 L 24.90625 0 L 24.90625 -2.09375 L 29.015625 -2.625 C 29.816406 -2.71875 30.289062 -2.925781 30.4375 -3.25 C 30.582031 -3.570312 30.65625 -4.582031 30.65625 -6.28125 L 30.65625 -25.125 C 30.65625 -28.5625 30.179688 -31.066406 29.234375 -32.640625 C 28.285156 -34.210938 26.867188 -35 24.984375 -35 C 24.179688 -35 23.226562 -34.785156 22.125 -34.359375 C 21.03125 -33.929688 19.945312 -33.171875 18.875 -32.078125 C 17.8125 -30.984375 16.878906 -29.363281 16.078125 -27.21875 L 16.078125 -6.28125 C 16.078125 -4.582031 16.148438 -3.570312 16.296875 -3.25 C 16.453125 -2.925781 16.925781 -2.71875 17.71875 -2.625 L 21.84375 -2.09375 L 21.84375 0 L 1.71875 0 L 1.71875 -2.09375 L 5.828125 -2.625 C 6.628906 -2.71875 7.101562 -2.925781 7.25 -3.25 C 7.40625 -3.570312 7.484375 -4.582031 7.484375 -6.28125 L 7.484375 -31.625 C 7.484375 -33.320312 7.40625 -34.332031 7.25 -34.65625 C 7.101562 -34.976562 6.628906 -35.191406 5.828125 -35.296875 L 1.71875 -35.8125 L 1.71875 -37.90625 L 15.625 -37.90625 L 15.625 -31.328125 C 17.019531 -33.867188 18.8125 -35.722656 21 -36.890625 C 23.195312 -38.066406 25.421875 -38.65625 27.671875 -38.65625 C 30.359375 -38.65625 32.632812 -37.96875 34.5 -36.59375 C 36.375 -35.226562 37.710938 -33.273438 38.515625 -30.734375 C 39.859375 -33.523438 41.675781 -35.539062 43.96875 -36.78125 C 46.257812 -38.03125 48.550781 -38.65625 50.84375 -38.65625 C 54.382812 -38.65625 57.203125 -37.484375 59.296875 -35.140625 C 61.390625 -32.796875 62.4375 -29.484375 62.4375 -25.203125 L 62.4375 -6.28125 C 62.4375 -4.582031 62.507812 -3.570312 62.65625 -3.25 C 62.8125 -2.925781 63.289062 -2.71875 64.09375 -2.625 L 68.203125 -2.09375 L 68.203125 0 L 48.078125 0 L 48.078125 -2.09375 L 52.203125 -2.625 C 52.992188 -2.71875 53.460938 -2.925781 53.609375 -3.25 C 53.765625 -3.570312 53.84375 -4.582031 53.84375 -6.28125 L 53.84375 -25.125 C 53.84375 -28.5625 53.367188 -31.066406 52.421875 -32.640625 C 51.472656 -34.210938 50.050781 -35 48.15625 -35 C 47.363281 -35 46.414062 -34.785156 45.3125 -34.359375 C 44.21875 -33.929688 43.117188 -33.144531 42.015625 -32 C 40.921875 -30.851562 39.976562 -29.1875 39.1875 -27 C 39.238281 -26.75 39.265625 -26.460938 39.265625 -26.140625 C 39.265625 -25.816406 39.265625 -25.503906 39.265625 -25.203125 L 39.265625 -6.28125 C 39.265625 -4.582031 39.335938 -3.570312 39.484375 -3.25 C 39.628906 -2.925781 40.101562 -2.71875 40.90625 -2.625 Z M 45.015625 -2.09375 "/></g></g></g><g fill="#e55f34" fill-opacity="1"><g transform="translate(292.108784, 133.802934)"><g><path d="M 35.453125 -8.90625 C 34.546875 -5.414062 32.867188 -2.929688 30.421875 -1.453125 C 27.984375 0.015625 25.144531 0.75 21.90625 0.75 C 15.925781 0.75 11.441406 -0.976562 8.453125 -4.4375 C 5.460938 -7.90625 3.96875 -12.507812 3.96875 -18.25 L 3.96875 -19.75 C 3.96875 -25.476562 5.375 -30.0625 8.1875 -33.5 C 11 -36.9375 15.078125 -38.65625 20.421875 -38.65625 C 23.410156 -38.65625 26.0625 -38.066406 28.375 -36.890625 C 30.695312 -35.722656 32.515625 -34.039062 33.828125 -31.84375 C 35.148438 -29.65625 35.8125 -26.992188 35.8125 -23.859375 C 35.8125 -23.109375 35.773438 -22.304688 35.703125 -21.453125 C 35.628906 -20.609375 35.492188 -19.765625 35.296875 -18.921875 L 13.15625 -18.921875 L 13.15625 -16.75 C 13.15625 -11.46875 13.898438 -7.664062 15.390625 -5.34375 C 16.890625 -3.03125 19.3125 -1.875 22.65625 -1.875 C 24.800781 -1.875 26.617188 -2.507812 28.109375 -3.78125 C 29.609375 -5.050781 30.457031 -7.207031 30.65625 -10.25 Z M 20.421875 -36.046875 C 17.972656 -36.046875 16.148438 -34.921875 14.953125 -32.671875 C 13.753906 -30.429688 13.15625 -26.71875 13.15625 -21.53125 L 26.703125 -21.53125 C 26.898438 -22.53125 27.035156 -23.46875 27.109375 -24.34375 C 27.179688 -25.21875 27.21875 -26.023438 27.21875 -26.765625 C 27.21875 -29.960938 26.59375 -32.304688 25.34375 -33.796875 C 24.101562 -35.296875 22.460938 -36.046875 20.421875 -36.046875 Z M 20.421875 -36.046875 "/></g></g></g><g fill="#e55f34" fill-opacity="1"><g transform="translate(331.664241, 133.802934)"><g><path d="M 42.546875 -2.09375 L 42.546875 0 L 28.640625 0 L 28.640625 -6.203125 C 27.242188 -3.910156 25.6875 -2.175781 23.96875 -1 C 22.25 0.164062 20.21875 0.75 17.875 0.75 C 13.6875 0.75 10.359375 -0.90625 7.890625 -4.21875 C 5.421875 -7.539062 4.1875 -12.191406 4.1875 -18.171875 L 4.1875 -19.671875 C 4.1875 -25.453125 5.617188 -30.0625 8.484375 -33.5 C 11.347656 -36.9375 15.273438 -38.65625 20.265625 -38.65625 C 23.253906 -38.65625 25.894531 -37.910156 28.1875 -36.421875 L 28.1875 -49.0625 C 28.1875 -50.75 28.113281 -51.753906 27.96875 -52.078125 C 27.820312 -52.410156 27.347656 -52.625 26.546875 -52.71875 L 22.4375 -53.25 L 22.4375 -55.34375 L 36.796875 -55.34375 L 36.796875 -6.28125 C 36.796875 -4.582031 36.867188 -3.570312 37.015625 -3.25 C 37.160156 -2.925781 37.632812 -2.71875 38.4375 -2.625 Z M 13.390625 -15.921875 C 13.390625 -11.285156 13.960938 -7.894531 15.109375 -5.75 C 16.253906 -3.613281 17.820312 -2.546875 19.8125 -2.546875 C 21.0625 -2.546875 22.367188 -3.054688 23.734375 -4.078125 C 25.109375 -5.097656 26.59375 -7.175781 28.1875 -10.3125 L 28.1875 -32.90625 C 26.289062 -34.800781 23.972656 -35.75 21.234375 -35.75 C 18.492188 -35.75 16.5 -34.515625 15.25 -32.046875 C 14.007812 -29.578125 13.390625 -26.195312 13.390625 -21.90625 Z M 13.390625 -15.921875 "/></g></g></g><g fill="#ffffff" fill-opacity="1"><g transform="translate(131.686695, 137.541639)"><g><path d="M 13.640625 -54.46875 C 12.203125 -54.46875 11.019531 -54.929688 10.09375 -55.859375 C 9.164062 -56.785156 8.703125 -58 8.703125 -59.5 C 8.703125 -60.925781 9.164062 -62.085938 10.09375 -62.984375 C 11.019531 -63.890625 12.203125 -64.34375 13.640625 -64.34375 C 15.078125 -64.34375 16.257812 -63.890625 17.1875 -62.984375 C 18.113281 -62.085938 18.578125 -60.925781 18.578125 -59.5 C 18.578125 -58 18.113281 -56.785156 17.1875 -55.859375 C 16.257812 -54.929688 15.078125 -54.46875 13.640625 -54.46875 Z M 3.140625 -42 L 3.140625 -44.421875 L 17.40625 -44.421875 L 17.40625 -7.265625 C 17.40625 -5.171875 17.492188 -3.941406 17.671875 -3.578125 C 17.859375 -3.222656 18.425781 -2.988281 19.375 -2.875 L 24.3125 -2.328125 L 24.3125 0 L 3.140625 0 L 3.140625 -2.328125 L 8.078125 -2.875 C 9.035156 -2.988281 9.601562 -3.222656 9.78125 -3.578125 C 9.957031 -3.941406 10.046875 -5.171875 10.046875 -7.265625 L 10.046875 -37.15625 C 10.046875 -39.25 9.957031 -40.472656 9.78125 -40.828125 C 9.601562 -41.191406 9.035156 -41.429688 8.078125 -41.546875 Z M 3.140625 -42 "/></g></g></g><g fill="#ffffff" fill-opacity="1"><g transform="translate(158.51561, 137.541639)"><g><path d="M 24.140625 -42.4375 C 20.847656 -42.4375 18.289062 -41.078125 16.46875 -38.359375 C 14.644531 -35.640625 13.734375 -31.171875 13.734375 -24.953125 L 13.734375 -19.5625 C 13.734375 -13.28125 14.644531 -8.773438 16.46875 -6.046875 C 18.289062 -3.328125 21.265625 -1.96875 25.390625 -1.96875 C 28.203125 -1.96875 30.472656 -2.6875 32.203125 -4.125 C 33.941406 -5.5625 35.113281 -8.046875 35.71875 -11.578125 L 40.46875 -10.234375 C 39.394531 -6.160156 37.421875 -3.285156 34.546875 -1.609375 C 31.671875 0.0546875 28.472656 0.890625 24.953125 0.890625 C 18.484375 0.890625 13.648438 -1.125 10.453125 -5.15625 C 7.253906 -9.195312 5.65625 -14.597656 5.65625 -21.359375 L 5.65625 -23.15625 C 5.65625 -29.851562 7.238281 -35.21875 10.40625 -39.25 C 13.582031 -43.289062 18.160156 -45.3125 24.140625 -45.3125 C 27.960938 -45.3125 31.144531 -44.5625 33.6875 -43.0625 C 36.238281 -41.570312 38.050781 -39.554688 39.125 -37.015625 C 40.195312 -34.472656 40.492188 -31.675781 40.015625 -28.625 L 32.9375 -27.546875 C 33.59375 -32.335938 33.15625 -36.015625 31.625 -38.578125 C 30.101562 -41.148438 27.609375 -42.4375 24.140625 -42.4375 Z M 24.140625 -42.4375 "/></g></g></g><g fill="#ffffff" fill-opacity="1"><g transform="translate(203.563294, 137.541639)"><g/></g></g><g fill="#ffffff" fill-opacity="1"><g transform="translate(223.931739, 137.541639)"><g/></g></g><g clip-path="url(#40678e3d4c)"><path fill="#e55f34" d="M 444.898438 24.1875 C 439.902344 17.144531 432.46875 12.460938 423.960938 11.011719 C 415.449219 9.558594 406.882812 11.503906 399.835938 16.5 C 392.792969 21.496094 388.113281 28.929688 386.660156 37.4375 C 385.210938 45.949219 387.152344 54.515625 392.148438 61.5625 C 395.515625 66.316406 400.152344 70.085938 405.566406 72.449219 L 407.824219 73.4375 L 406.460938 75.5 C 406.417969 75.574219 406.386719 75.636719 406.371094 75.710938 L 404.351562 87.554688 C 404.324219 87.75 404.398438 87.914062 404.457031 87.972656 C 404.519531 88.0625 404.636719 88.167969 404.816406 88.210938 L 407.644531 88.691406 L 407.285156 90.753906 C 399.449219 135.367188 374.933594 174.730469 338.25 201.609375 C 301.457031 228.558594 256.367188 240.015625 211.273438 233.867188 C 155.96875 226.328125 107.347656 192.484375 80.800781 143.160156 C 79.722656 143.742188 78.675781 144.371094 77.597656 145.015625 C 76.761719 145.507812 75.910156 146.015625 75.027344 146.511719 C 80.5 156.664062 86.976562 166.328125 94.273438 175.269531 C 123.484375 211.058594 164.714844 234.210938 210.390625 240.433594 C 257.1875 246.820312 304 234.914062 342.210938 206.933594 C 380.320312 179.023438 405.757812 138.148438 413.878906 91.832031 L 414.238281 89.796875 L 416.289062 90.140625 C 416.601562 90.1875 416.75 90.140625 416.839844 90.082031 L 416.871094 90.066406 C 416.945312 90.023438 417.066406 89.902344 417.109375 89.707031 L 419.128906 77.863281 C 419.144531 77.789062 419.144531 77.714844 419.113281 77.640625 L 418.515625 75.246094 L 420.984375 75.066406 C 426.863281 74.632812 432.484375 72.613281 437.242188 69.25 C 444.285156 64.253906 448.964844 56.820312 450.417969 48.3125 C 451.839844 39.816406 449.878906 31.246094 444.898438 24.1875 Z M 418.859375 55.757812 C 411.890625 55.757812 406.238281 50.105469 406.238281 43.136719 C 406.238281 36.167969 411.890625 30.511719 418.859375 30.511719 C 425.828125 30.511719 431.484375 36.167969 431.484375 43.136719 C 431.484375 50.105469 425.828125 55.757812 418.859375 55.757812 Z M 418.859375 55.757812 " fill-opacity="1" fill-rule="nonzero"/></g></svg>