<svg xmlns="http://www.w3.org/2000/svg" xmlns:xlink="http://www.w3.org/1999/xlink" width="608" zoomAndPan="magnify" viewBox="0 0 456 273.749983" height="365" preserveAspectRatio="xMidYMid meet" version="1.0"><defs><g/><clipPath id="b1617f322b"><path d="M 0.207031 0 L 455.640625 0 L 455.640625 54.324219 L 0.207031 54.324219 Z M 0.207031 0 " clip-rule="nonzero"/></clipPath><clipPath id="32f2bd630e"><path d="M 382.824219 27.164062 L 453.753906 27.164062 L 453.753906 94.167969 L 382.824219 94.167969 Z M 382.824219 27.164062 " clip-rule="nonzero"/></clipPath><clipPath id="f0f30db3b5"><path d="M 418.234375 27.164062 C 398.675781 27.164062 382.824219 42.164062 382.824219 60.664062 C 382.824219 79.167969 398.675781 94.167969 418.234375 94.167969 C 437.789062 94.167969 453.644531 79.167969 453.644531 60.664062 C 453.644531 42.164062 437.789062 27.164062 418.234375 27.164062 Z M 418.234375 27.164062 " clip-rule="nonzero"/></clipPath><clipPath id="6cd3bbaae8"><path d="M 0.207031 9.929688 L 216.351562 9.929688 L 216.351562 270.722656 L 0.207031 270.722656 Z M 0.207031 9.929688 " clip-rule="nonzero"/></clipPath><clipPath id="6caad6c60b"><path d="M 216.351562 35 L 452 35 L 452 269 L 216.351562 269 Z M 216.351562 35 " clip-rule="nonzero"/></clipPath></defs><g clip-path="url(#b1617f322b)"><path fill="#e55f34" d="M 0.207031 0 L 455.605469 0 L 455.605469 54.324219 L 0.207031 54.324219 Z M 0.207031 0 " fill-opacity="1" fill-rule="nonzero"/></g><g clip-path="url(#32f2bd630e)"><g clip-path="url(#f0f30db3b5)"><path fill="#ffe6e6" d="M 382.824219 27.164062 L 453.753906 27.164062 L 453.753906 94.167969 L 382.824219 94.167969 Z M 382.824219 27.164062 " fill-opacity="1" fill-rule="nonzero"/></g></g><g clip-path="url(#6cd3bbaae8)"><path fill="#e55f34" d="M 0.207031 9.929688 L 216.351562 9.929688 L 216.351562 270.824219 L 0.207031 270.824219 Z M 0.207031 9.929688 " fill-opacity="1" fill-rule="nonzero"/></g><path fill="#ffffff" d="M 90.621094 128.074219 C 89.601562 125.152344 88.539062 122.082031 87.609375 119.113281 C 87.171875 117.6875 85.929688 116.746094 84.535156 116.625 C 82.347656 110.945312 78.359375 101.25 73.324219 90.53125 C 67.242188 77.566406 59.628906 63.136719 51.832031 52.539062 C 47.398438 46.515625 42.871094 41.734375 38.464844 39.066406 C 39.8125 37.3125 41.449219 36.15625 43.378906 35.785156 C 43.605469 35.738281 43.816406 35.707031 44.039062 35.679688 C 45.824219 35.484375 47.382812 35.332031 49.074219 35.289062 C 50.738281 35.242188 52.523438 35.304688 54.757812 35.542969 L 54.875 37.671875 C 58.128906 39.171875 60.554688 40.714844 62.894531 40.59375 C 66.820312 40.382812 70.65625 38.617188 70.402344 33.941406 C 70.148438 29.265625 66.144531 27.914062 62.234375 28.125 C 59.898438 28.246094 57.648438 30.042969 54.578125 31.886719 L 54.621094 32.875 C 52.449219 32.667969 50.664062 32.605469 49.015625 32.652344 C 47.261719 32.695312 45.628906 32.859375 43.769531 33.054688 C 43.457031 33.085938 43.15625 33.128906 42.871094 33.191406 C 40.113281 33.730469 37.894531 35.394531 36.113281 37.882812 C 33.292969 36.683594 30.535156 36.414062 27.898438 37.371094 C 27.628906 37.476562 27.34375 37.582031 27.058594 37.71875 C 25.367188 38.511719 23.898438 39.214844 22.367188 40.085938 C 20.929688 40.894531 19.445312 41.882812 17.691406 43.1875 L 17.226562 42.316406 C 13.632812 42.332031 10.785156 41.957031 8.730469 43.066406 C 5.269531 44.925781 2.554688 48.164062 4.757812 52.285156 C 6.976562 56.421875 11.171875 55.941406 14.636719 54.082031 C 16.703125 52.972656 17.976562 50.394531 19.96875 47.429688 L 18.964844 45.554688 C 20.75 44.191406 22.234375 43.21875 23.6875 42.394531 C 25.15625 41.554688 26.566406 40.878906 28.199219 40.113281 C 28.394531 40.023438 28.601562 39.933594 28.8125 39.859375 C 30.671875 39.1875 32.648438 39.320312 34.71875 40.113281 C 32.320312 44.6875 30.941406 51.117188 30.28125 58.5625 C 29.113281 71.679688 30.101562 87.96875 31.628906 102.191406 C 32.875 113.824219 34.476562 124.074219 35.558594 130.097656 C 33.894531 130.726562 32.90625 132.511719 33.355469 134.28125 C 34.105469 137.308594 34.777344 140.484375 35.4375 143.511719 C 39.917969 164.375 42.917969 178.386719 73.488281 175.421875 C 73.582031 175.40625 73.671875 175.375 73.761719 175.359375 C 73.878906 175.34375 73.984375 175.316406 74.105469 175.285156 C 74.222656 175.253906 74.328125 175.210938 74.433594 175.164062 C 74.523438 175.136719 74.613281 175.121094 74.6875 175.074219 C 102.339844 161.765625 97.636719 148.234375 90.621094 128.074219 Z M 72.140625 168.375 C 48.519531 170.472656 46.046875 159.007812 42.40625 142.011719 C 41.777344 139.089844 41.117188 136.019531 40.261719 132.570312 C 39.992188 131.476562 39.230469 130.652344 38.285156 130.21875 C 37.222656 124.328125 35.558594 113.867188 34.285156 101.921875 C 32.769531 87.820312 31.796875 71.707031 32.933594 58.804688 C 33.578125 51.59375 34.867188 45.449219 37.054688 41.285156 C 41.085938 43.695312 45.390625 48.28125 49.675781 54.113281 C 57.363281 64.542969 64.886719 78.828125 70.898438 91.65625 C 75.84375 102.191406 79.769531 111.722656 81.957031 117.390625 C 80.863281 118.273438 80.355469 119.773438 80.789062 121.210938 C 81.851562 124.613281 82.886719 127.566406 83.863281 130.398438 C 89.585938 146.824219 93.421875 157.898438 72.140625 168.375 Z M 72.140625 168.375 " fill-opacity="1" fill-rule="evenodd"/><path fill="#ffffff" d="M 445.191406 49.691406 C 440.183594 42.632812 432.734375 37.941406 424.207031 36.488281 C 415.679688 35.035156 407.09375 36.984375 400.035156 41.988281 C 392.976562 46.992188 388.285156 54.441406 386.828125 62.96875 C 385.375 71.5 387.324219 80.085938 392.332031 87.144531 C 395.703125 91.910156 400.347656 95.6875 405.773438 98.054688 L 408.035156 99.046875 L 406.671875 101.113281 C 406.628906 101.1875 406.597656 101.25 406.582031 101.324219 L 404.558594 113.191406 C 404.53125 113.386719 404.605469 113.550781 404.664062 113.613281 C 404.726562 113.703125 404.84375 113.808594 405.023438 113.851562 L 407.855469 114.332031 L 407.496094 116.398438 C 399.644531 161.105469 375.078125 200.554688 338.316406 227.484375 C 301.445312 254.492188 256.261719 265.972656 211.074219 259.8125 C 155.652344 252.261719 106.925781 218.34375 80.324219 168.914062 C 79.246094 169.5 78.195312 170.128906 77.117188 170.773438 C 76.277344 171.269531 75.421875 171.777344 74.539062 172.273438 C 80.023438 182.449219 86.515625 192.132812 93.828125 201.09375 C 123.097656 236.957031 164.417969 260.160156 210.1875 266.394531 C 257.085938 272.792969 303.996094 260.863281 342.289062 232.820312 C 380.476562 204.855469 405.96875 163.894531 414.105469 117.480469 L 414.464844 115.441406 L 416.519531 115.785156 C 416.835938 115.832031 416.984375 115.785156 417.074219 115.726562 L 417.105469 115.710938 C 417.179688 115.664062 417.300781 115.546875 417.34375 115.351562 L 419.367188 103.480469 C 419.382812 103.40625 419.382812 103.332031 419.351562 103.257812 L 418.753906 100.859375 L 421.226562 100.679688 C 427.117188 100.242188 432.75 98.222656 437.515625 94.847656 C 444.574219 89.84375 449.265625 82.394531 450.722656 73.867188 C 452.144531 65.351562 450.179688 56.765625 445.191406 49.691406 Z M 419.097656 81.328125 C 412.113281 81.328125 406.449219 75.664062 406.449219 68.679688 C 406.449219 61.695312 412.113281 56.03125 419.097656 56.03125 C 426.082031 56.03125 431.746094 61.695312 431.746094 68.679688 C 431.746094 75.664062 426.082031 81.328125 419.097656 81.328125 Z M 419.097656 81.328125 " fill-opacity="1" fill-rule="nonzero"/><g clip-path="url(#6caad6c60b)"><path fill="#e55f34" d="M 445.28125 49.59375 C 440.273438 42.535156 432.820312 37.839844 424.289062 36.386719 C 415.757812 34.929688 407.167969 36.878906 400.105469 41.886719 C 393.042969 46.894531 388.351562 54.347656 386.898438 62.878906 C 385.441406 71.410156 387.390625 80.003906 392.398438 87.0625 C 395.773438 91.832031 400.421875 95.609375 405.847656 97.980469 L 408.113281 98.96875 L 406.746094 101.039062 C 406.703125 101.113281 406.671875 101.171875 406.65625 101.25 L 404.632812 113.121094 C 404.605469 113.316406 404.679688 113.484375 404.738281 113.542969 C 404.796875 113.632812 404.917969 113.738281 405.097656 113.78125 L 407.933594 114.261719 L 407.574219 116.332031 C 399.714844 161.058594 375.140625 200.519531 338.363281 227.464844 C 301.476562 254.480469 256.273438 265.96875 211.066406 259.804688 C 155.621094 252.25 106.875 218.316406 80.261719 168.867188 C 79.183594 169.453125 78.132812 170.082031 77.054688 170.726562 C 76.214844 171.222656 75.359375 171.734375 74.476562 172.226562 C 79.964844 182.410156 86.457031 192.09375 93.773438 201.058594 C 123.054688 236.941406 164.390625 260.148438 210.183594 266.386719 C 257.097656 272.789062 304.027344 260.855469 342.335938 232.800781 C 380.539062 204.824219 406.042969 163.847656 414.183594 117.410156 L 414.542969 115.371094 L 416.597656 115.71875 C 416.914062 115.761719 417.0625 115.71875 417.152344 115.65625 L 417.183594 115.640625 C 417.257812 115.597656 417.378906 115.476562 417.421875 115.28125 L 419.449219 103.40625 C 419.460938 103.332031 419.460938 103.257812 419.433594 103.183594 L 418.832031 100.785156 L 421.304688 100.601562 C 427.199219 100.167969 432.835938 98.144531 437.605469 94.769531 C 444.667969 89.761719 449.359375 82.3125 450.8125 73.78125 C 452.238281 65.261719 450.273438 56.671875 445.28125 49.59375 Z M 419.175781 81.246094 C 412.191406 81.246094 406.523438 75.578125 406.523438 68.59375 C 406.523438 61.605469 412.191406 55.9375 419.175781 55.9375 C 426.164062 55.9375 431.832031 61.605469 431.832031 68.59375 C 431.832031 75.578125 426.164062 81.246094 419.175781 81.246094 Z M 419.175781 81.246094 " fill-opacity="1" fill-rule="nonzero"/></g><g fill="#e55f34" fill-opacity="1"><g transform="translate(234.623911, 163.47403)"><g><path d="M 40.296875 -1.875 L 40.296875 0 L 22.296875 0 L 22.296875 -1.875 L 25.96875 -2.34375 C 26.6875 -2.4375 27.109375 -2.625 27.234375 -2.90625 C 27.367188 -3.195312 27.4375 -4.101562 27.4375 -5.625 L 27.4375 -22.484375 C 27.4375 -25.566406 27.015625 -27.8125 26.171875 -29.21875 C 25.328125 -30.625 24.054688 -31.328125 22.359375 -31.328125 C 21.640625 -31.328125 20.789062 -31.132812 19.8125 -30.75 C 18.832031 -30.375 17.863281 -29.695312 16.90625 -28.71875 C 15.945312 -27.738281 15.109375 -26.285156 14.390625 -24.359375 L 14.390625 -5.625 C 14.390625 -4.101562 14.457031 -3.195312 14.59375 -2.90625 C 14.726562 -2.625 15.148438 -2.4375 15.859375 -2.34375 L 19.546875 -1.875 L 19.546875 0 L 1.546875 0 L 1.546875 -1.875 L 5.21875 -2.34375 C 5.9375 -2.4375 6.359375 -2.625 6.484375 -2.90625 C 6.617188 -3.195312 6.6875 -4.101562 6.6875 -5.625 L 6.6875 -28.3125 C 6.6875 -29.832031 6.617188 -30.734375 6.484375 -31.015625 C 6.359375 -31.304688 5.9375 -31.5 5.21875 -31.59375 L 1.546875 -32.0625 L 1.546875 -33.9375 L 13.984375 -33.9375 L 13.984375 -28.046875 C 15.234375 -30.316406 16.835938 -31.976562 18.796875 -33.03125 C 20.765625 -34.082031 22.753906 -34.609375 24.765625 -34.609375 C 27.171875 -34.609375 29.210938 -33.992188 30.890625 -32.765625 C 32.566406 -31.535156 33.757812 -29.785156 34.46875 -27.515625 C 35.675781 -30.015625 37.304688 -31.820312 39.359375 -32.9375 C 41.410156 -34.050781 43.460938 -34.609375 45.515625 -34.609375 C 48.679688 -34.609375 51.203125 -33.554688 53.078125 -31.453125 C 54.953125 -29.359375 55.890625 -26.394531 55.890625 -22.5625 L 55.890625 -5.625 C 55.890625 -4.101562 55.957031 -3.195312 56.09375 -2.90625 C 56.226562 -2.625 56.648438 -2.4375 57.359375 -2.34375 L 61.046875 -1.875 L 61.046875 0 L 43.046875 0 L 43.046875 -1.875 L 46.71875 -2.34375 C 47.4375 -2.4375 47.859375 -2.625 47.984375 -2.90625 C 48.117188 -3.195312 48.1875 -4.101562 48.1875 -5.625 L 48.1875 -22.484375 C 48.1875 -25.566406 47.765625 -27.8125 46.921875 -29.21875 C 46.078125 -30.625 44.804688 -31.328125 43.109375 -31.328125 C 42.390625 -31.328125 41.539062 -31.132812 40.5625 -30.75 C 39.582031 -30.375 38.597656 -29.671875 37.609375 -28.640625 C 36.628906 -27.617188 35.785156 -26.128906 35.078125 -24.171875 C 35.117188 -23.941406 35.140625 -23.679688 35.140625 -23.390625 C 35.140625 -23.097656 35.140625 -22.820312 35.140625 -22.5625 L 35.140625 -5.625 C 35.140625 -4.101562 35.207031 -3.195312 35.34375 -2.90625 C 35.476562 -2.625 35.898438 -2.4375 36.609375 -2.34375 Z M 40.296875 -1.875 "/></g></g></g><g fill="#e55f34" fill-opacity="1"><g transform="translate(296.404821, 163.47403)"><g><path d="M 31.734375 -7.96875 C 30.929688 -4.84375 29.4375 -2.617188 27.25 -1.296875 C 25.0625 0.015625 22.515625 0.671875 19.609375 0.671875 C 14.253906 0.671875 10.238281 -0.878906 7.5625 -3.984375 C 4.882812 -7.085938 3.546875 -11.203125 3.546875 -16.328125 L 3.546875 -17.671875 C 3.546875 -22.804688 4.804688 -26.910156 7.328125 -29.984375 C 9.847656 -33.066406 13.5 -34.609375 18.28125 -34.609375 C 20.957031 -34.609375 23.332031 -34.082031 25.40625 -33.03125 C 27.476562 -31.976562 29.101562 -30.46875 30.28125 -28.5 C 31.46875 -26.539062 32.0625 -24.160156 32.0625 -21.359375 C 32.0625 -20.679688 32.023438 -19.960938 31.953125 -19.203125 C 31.890625 -18.453125 31.769531 -17.695312 31.59375 -16.9375 L 11.78125 -16.9375 L 11.78125 -15 C 11.78125 -10.269531 12.445312 -6.863281 13.78125 -4.78125 C 15.125 -2.707031 17.289062 -1.671875 20.28125 -1.671875 C 22.195312 -1.671875 23.820312 -2.238281 25.15625 -3.375 C 26.5 -4.519531 27.257812 -6.453125 27.4375 -9.171875 Z M 18.28125 -32.265625 C 16.09375 -32.265625 14.460938 -31.257812 13.390625 -29.25 C 12.316406 -27.238281 11.78125 -23.914062 11.78125 -19.28125 L 23.890625 -19.28125 C 24.078125 -20.164062 24.203125 -21 24.265625 -21.78125 C 24.328125 -22.5625 24.359375 -23.289062 24.359375 -23.96875 C 24.359375 -26.820312 23.800781 -28.914062 22.6875 -30.25 C 21.570312 -31.59375 20.101562 -32.265625 18.28125 -32.265625 Z M 18.28125 -32.265625 "/></g></g></g><g fill="#e55f34" fill-opacity="1"><g transform="translate(331.813379, 163.47403)"><g><path d="M 38.09375 -1.875 L 38.09375 0 L 25.640625 0 L 25.640625 -5.5625 C 24.390625 -3.507812 22.992188 -1.957031 21.453125 -0.90625 C 19.910156 0.144531 18.09375 0.671875 16 0.671875 C 12.25 0.671875 9.269531 -0.8125 7.0625 -3.78125 C 4.851562 -6.75 3.75 -10.910156 3.75 -16.265625 L 3.75 -17.609375 C 3.75 -22.785156 5.03125 -26.910156 7.59375 -29.984375 C 10.164062 -33.066406 13.679688 -34.609375 18.140625 -34.609375 C 20.816406 -34.609375 23.179688 -33.9375 25.234375 -32.59375 L 25.234375 -43.90625 C 25.234375 -45.425781 25.164062 -46.332031 25.03125 -46.625 C 24.894531 -46.914062 24.472656 -47.101562 23.765625 -47.1875 L 20.078125 -47.65625 L 20.078125 -49.53125 L 32.9375 -49.53125 L 32.9375 -5.625 C 32.9375 -4.101562 33 -3.195312 33.125 -2.90625 C 33.257812 -2.625 33.6875 -2.4375 34.40625 -2.34375 Z M 11.984375 -14.25 C 11.984375 -10.101562 12.492188 -7.070312 13.515625 -5.15625 C 14.546875 -3.238281 15.953125 -2.28125 17.734375 -2.28125 C 18.847656 -2.28125 20.019531 -2.734375 21.25 -3.640625 C 22.476562 -4.554688 23.804688 -6.421875 25.234375 -9.234375 L 25.234375 -29.453125 C 23.535156 -31.148438 21.460938 -32 19.015625 -32 C 16.554688 -32 14.769531 -30.894531 13.65625 -28.6875 C 12.539062 -26.476562 11.984375 -23.453125 11.984375 -19.609375 Z M 11.984375 -14.25 "/></g></g></g><g fill="#ffffff" fill-opacity="1"><g transform="translate(134.141654, 165.1225)"><g><path d="M 13.8125 -55.1875 C 12.363281 -55.1875 11.164062 -55.65625 10.21875 -56.59375 C 9.28125 -57.539062 8.8125 -58.769531 8.8125 -60.28125 C 8.8125 -61.738281 9.28125 -62.921875 10.21875 -63.828125 C 11.164062 -64.734375 12.363281 -65.1875 13.8125 -65.1875 C 15.269531 -65.1875 16.46875 -64.734375 17.40625 -63.828125 C 18.351562 -62.921875 18.828125 -61.738281 18.828125 -60.28125 C 18.828125 -58.769531 18.351562 -57.539062 17.40625 -56.59375 C 16.46875 -55.65625 15.269531 -55.1875 13.8125 -55.1875 Z M 3.1875 -42.546875 L 3.1875 -45 L 17.640625 -45 L 17.640625 -7.359375 C 17.640625 -5.242188 17.726562 -4.003906 17.90625 -3.640625 C 18.09375 -3.273438 18.671875 -3.03125 19.640625 -2.90625 L 24.640625 -2.359375 L 24.640625 0 L 3.1875 0 L 3.1875 -2.359375 L 8.1875 -2.90625 C 9.15625 -3.03125 9.726562 -3.273438 9.90625 -3.640625 C 10.09375 -4.003906 10.1875 -5.242188 10.1875 -7.359375 L 10.1875 -37.640625 C 10.1875 -39.765625 10.09375 -41.007812 9.90625 -41.375 C 9.726562 -41.738281 9.15625 -41.976562 8.1875 -42.09375 Z M 3.1875 -42.546875 "/></g></g></g><g fill="#ffffff" fill-opacity="1"><g transform="translate(161.324651, 165.1225)"><g><path d="M 24.453125 -43 C 21.117188 -43 18.523438 -41.617188 16.671875 -38.859375 C 14.828125 -36.109375 13.90625 -31.582031 13.90625 -25.28125 L 13.90625 -19.828125 C 13.90625 -13.460938 14.828125 -8.898438 16.671875 -6.140625 C 18.523438 -3.378906 21.546875 -2 25.734375 -2 C 28.578125 -2 30.878906 -2.722656 32.640625 -4.171875 C 34.398438 -5.628906 35.582031 -8.148438 36.1875 -11.734375 L 41 -10.359375 C 39.914062 -6.242188 37.914062 -3.335938 35 -1.640625 C 32.09375 0.0546875 28.851562 0.90625 25.28125 0.90625 C 18.726562 0.90625 13.832031 -1.132812 10.59375 -5.21875 C 7.351562 -9.3125 5.734375 -14.785156 5.734375 -21.640625 L 5.734375 -23.453125 C 5.734375 -30.242188 7.335938 -35.6875 10.546875 -39.78125 C 13.753906 -43.875 18.390625 -45.921875 24.453125 -45.921875 C 28.335938 -45.921875 31.566406 -45.160156 34.140625 -43.640625 C 36.710938 -42.128906 38.546875 -40.082031 39.640625 -37.5 C 40.734375 -34.925781 41.035156 -32.09375 40.546875 -29 L 33.375 -27.90625 C 34.039062 -32.757812 33.597656 -36.488281 32.046875 -39.09375 C 30.503906 -41.695312 27.972656 -43 24.453125 -43 Z M 24.453125 -43 "/></g></g></g><g fill="#ffffff" fill-opacity="1"><g transform="translate(206.965765, 165.1225)"><g/></g></g><g fill="#ffffff" fill-opacity="1"><g transform="translate(227.603033, 165.1225)"><g/></g></g></svg>