<svg xmlns="http://www.w3.org/2000/svg" xmlns:xlink="http://www.w3.org/1999/xlink" width="604" zoomAndPan="magnify" viewBox="0 0 452.88 248.250006" height="331" preserveAspectRatio="xMidYMid meet" version="1.0"><defs><g/><clipPath id="86cd74bb37"><path d="M 0.949219 0.449219 L 216.640625 0.449219 L 216.640625 244.960938 L 0.949219 244.960938 Z M 0.949219 0.449219 " clip-rule="nonzero"/></clipPath><clipPath id="884b499218"><path d="M 4 2.585938 L 97 2.585938 L 97 151 L 4 151 Z M 4 2.585938 " clip-rule="nonzero"/></clipPath><clipPath id="e495c716a2"><path d="M 216.640625 10 L 451.84375 10 L 451.84375 243 L 216.640625 243 Z M 216.640625 10 " clip-rule="nonzero"/></clipPath><clipPath id="e5ab540291"><path d="M 132.828125 83.335938 L 145.328125 83.335938 L 145.328125 142.433594 L 132.828125 142.433594 Z M 132.828125 83.335938 " clip-rule="nonzero"/></clipPath><clipPath id="a7bff3713a"><path d="M 131.289062 62.226562 L 146.992188 62.226562 L 146.992188 77.929688 L 131.289062 77.929688 Z M 131.289062 62.226562 " clip-rule="nonzero"/></clipPath></defs><g clip-path="url(#86cd74bb37)"><path fill="#e55f34" d="M 0.949219 0.449219 L 216.640625 0.449219 L 216.640625 244.785156 L 0.949219 244.785156 Z M 0.949219 0.449219 " fill-opacity="1" fill-rule="nonzero"/></g><g clip-path="url(#884b499218)"><path fill="#ffffff" d="M 91.171875 102.609375 C 90.15625 99.695312 89.09375 96.628906 88.167969 93.667969 C 87.734375 92.246094 86.492188 91.304688 85.101562 91.183594 C 82.917969 85.515625 78.941406 75.839844 73.914062 65.148438 C 67.84375 52.210938 60.246094 37.808594 52.46875 27.234375 C 48.039062 21.222656 43.523438 16.449219 39.128906 13.789062 C 40.472656 12.039062 42.101562 10.886719 44.03125 10.511719 C 44.257812 10.46875 44.464844 10.4375 44.691406 10.410156 C 46.46875 10.214844 48.027344 10.066406 49.714844 10.019531 C 51.375 9.976562 53.15625 10.035156 55.382812 10.273438 L 55.503906 12.398438 C 58.75 13.894531 61.171875 15.433594 63.503906 15.3125 C 67.421875 15.105469 71.253906 13.339844 71 8.671875 C 70.742188 4.007812 66.75 2.660156 62.847656 2.871094 C 60.515625 2.992188 58.269531 4.785156 55.203125 6.625 L 55.25 7.613281 C 53.082031 7.402344 51.300781 7.34375 49.65625 7.386719 C 47.90625 7.433594 46.277344 7.597656 44.421875 7.792969 C 44.109375 7.820312 43.808594 7.867188 43.523438 7.925781 C 40.773438 8.464844 38.558594 10.125 36.777344 12.605469 C 33.96875 11.410156 31.214844 11.140625 28.582031 12.097656 C 28.3125 12.203125 28.03125 12.308594 27.746094 12.441406 C 26.054688 13.234375 24.589844 13.9375 23.066406 14.804688 C 21.628906 15.613281 20.148438 16.601562 18.398438 17.902344 L 17.933594 17.035156 C 14.34375 17.050781 11.503906 16.675781 9.453125 17.78125 C 6 19.636719 3.292969 22.867188 5.492188 26.980469 C 7.707031 31.109375 11.894531 30.628906 15.347656 28.773438 C 17.410156 27.667969 18.683594 25.09375 20.671875 22.132812 L 19.667969 20.265625 C 21.449219 18.902344 22.929688 17.929688 24.378906 17.109375 C 25.847656 16.269531 27.253906 15.597656 28.882812 14.835938 C 29.078125 14.746094 29.285156 14.65625 29.496094 14.582031 C 31.351562 13.910156 33.324219 14.042969 35.386719 14.835938 C 32.996094 19.398438 31.621094 25.8125 30.960938 33.246094 C 29.792969 46.332031 30.78125 62.589844 32.308594 76.78125 C 33.546875 88.386719 35.148438 98.617188 36.226562 104.628906 C 34.566406 105.257812 33.578125 107.039062 34.027344 108.804688 C 34.773438 111.824219 35.449219 114.996094 36.105469 118.015625 C 40.578125 138.835938 43.570312 152.816406 74.078125 149.855469 C 74.167969 149.839844 74.257812 149.8125 74.347656 149.796875 C 74.46875 149.78125 74.574219 149.753906 74.691406 149.722656 C 74.8125 149.691406 74.917969 149.648438 75.019531 149.601562 C 75.109375 149.574219 75.199219 149.558594 75.277344 149.511719 C 102.867188 136.230469 98.171875 122.726562 91.171875 102.609375 Z M 72.734375 142.828125 C 49.164062 144.921875 46.695312 133.480469 43.0625 116.519531 C 42.433594 113.605469 41.773438 110.539062 40.921875 107.097656 C 40.652344 106.007812 39.890625 105.183594 38.949219 104.75 C 37.886719 98.871094 36.226562 88.433594 34.953125 76.511719 C 33.445312 62.441406 32.472656 46.363281 33.609375 33.484375 C 34.25 26.292969 35.539062 20.160156 37.722656 16.003906 C 41.746094 18.410156 46.035156 22.988281 50.3125 28.804688 C 57.988281 39.214844 65.496094 53.464844 71.492188 66.269531 C 76.425781 76.78125 80.34375 86.292969 82.527344 91.949219 C 81.4375 92.832031 80.929688 94.324219 81.363281 95.761719 C 82.425781 99.15625 83.457031 102.101562 84.429688 104.929688 C 90.140625 121.320312 93.96875 132.375 72.734375 142.828125 Z M 72.734375 142.828125 " fill-opacity="1" fill-rule="evenodd"/></g><path fill="#ffffff" d="M 445 24.390625 C 440.003906 17.347656 432.570312 12.667969 424.058594 11.214844 C 415.550781 9.765625 406.980469 11.710938 399.9375 16.707031 C 392.890625 21.699219 388.210938 29.132812 386.761719 37.644531 C 385.308594 46.152344 387.253906 54.722656 392.25 61.765625 C 395.613281 66.523438 400.25 70.292969 405.664062 72.65625 L 407.921875 73.640625 L 406.5625 75.707031 C 406.515625 75.78125 406.488281 75.839844 406.472656 75.914062 L 404.453125 87.761719 C 404.421875 87.953125 404.496094 88.121094 404.558594 88.179688 C 404.617188 88.269531 404.738281 88.375 404.917969 88.417969 L 407.742188 88.898438 L 407.382812 90.960938 C 399.546875 135.574219 375.035156 174.9375 338.347656 201.8125 C 301.558594 228.761719 256.464844 240.21875 211.375 234.074219 C 156.066406 226.535156 107.445312 192.691406 80.898438 143.367188 C 79.820312 143.949219 78.773438 144.578125 77.699219 145.21875 C 76.859375 145.714844 76.007812 146.222656 75.125 146.714844 C 80.601562 156.871094 87.074219 166.53125 94.375 175.476562 C 123.582031 211.265625 164.816406 234.417969 210.492188 240.636719 C 257.289062 247.023438 304.097656 235.121094 342.3125 207.136719 C 380.417969 179.230469 405.859375 138.355469 413.980469 92.039062 L 414.339844 90.003906 L 416.386719 90.347656 C 416.703125 90.390625 416.851562 90.347656 416.941406 90.289062 L 416.972656 90.273438 C 417.046875 90.226562 417.164062 90.109375 417.210938 89.914062 L 419.230469 78.070312 C 419.246094 77.992188 419.246094 77.917969 419.214844 77.84375 L 418.617188 75.453125 L 421.082031 75.273438 C 426.960938 74.839844 432.585938 72.820312 437.339844 69.453125 C 444.386719 64.460938 449.066406 57.027344 450.515625 48.515625 C 451.9375 40.019531 449.976562 31.453125 445 24.390625 Z M 418.960938 55.964844 C 411.992188 55.964844 406.335938 50.3125 406.335938 43.339844 C 406.335938 36.371094 411.992188 30.71875 418.960938 30.71875 C 425.929688 30.71875 431.582031 36.371094 431.582031 43.339844 C 431.582031 50.3125 425.929688 55.964844 418.960938 55.964844 Z M 418.960938 55.964844 " fill-opacity="1" fill-rule="nonzero"/><g clip-path="url(#e495c716a2)"><path fill="#e55f34" d="M 445.089844 24.296875 C 440.089844 17.25 432.65625 12.566406 424.140625 11.113281 C 415.628906 9.664062 407.054688 11.609375 400.007812 16.605469 C 392.960938 21.601562 388.277344 29.039062 386.828125 37.550781 C 385.375 46.066406 387.320312 54.640625 392.316406 61.6875 C 395.683594 66.445312 400.324219 70.214844 405.738281 72.578125 L 407.996094 73.566406 L 406.636719 75.632812 C 406.589844 75.707031 406.5625 75.765625 406.546875 75.839844 L 404.527344 87.691406 C 404.496094 87.886719 404.570312 88.050781 404.632812 88.109375 C 404.691406 88.199219 404.8125 88.304688 404.992188 88.347656 L 407.820312 88.828125 L 407.460938 90.890625 C 399.621094 135.523438 375.097656 174.902344 338.394531 201.789062 C 301.585938 228.753906 256.476562 240.214844 211.367188 234.0625 C 156.035156 226.523438 107.394531 192.664062 80.835938 143.320312 C 79.761719 143.902344 78.714844 144.53125 77.636719 145.175781 C 76.796875 145.667969 75.945312 146.175781 75.0625 146.671875 C 80.539062 156.828125 87.015625 166.496094 94.320312 175.441406 C 123.539062 211.246094 164.789062 234.40625 210.484375 240.632812 C 257.300781 247.019531 304.132812 235.113281 342.359375 207.117188 C 380.484375 179.199219 405.933594 138.308594 414.058594 91.96875 L 414.417969 89.933594 L 416.464844 90.277344 C 416.78125 90.324219 416.929688 90.277344 417.019531 90.21875 L 417.050781 90.203125 C 417.125 90.160156 417.246094 90.039062 417.289062 89.84375 L 419.308594 77.996094 C 419.324219 77.921875 419.324219 77.84375 419.292969 77.769531 L 418.695312 75.375 L 421.164062 75.195312 C 427.042969 74.761719 432.671875 72.742188 437.429688 69.375 C 444.476562 64.378906 449.160156 56.945312 450.609375 48.429688 C 452.03125 39.929688 450.070312 31.359375 445.089844 24.296875 Z M 419.039062 55.882812 C 412.066406 55.882812 406.410156 50.226562 406.410156 43.253906 C 406.410156 36.28125 412.066406 30.625 419.039062 30.625 C 426.011719 30.625 431.667969 36.28125 431.667969 43.253906 C 431.667969 50.226562 426.011719 55.882812 419.039062 55.882812 Z M 419.039062 55.882812 " fill-opacity="1" fill-rule="nonzero"/></g><g fill="#e55f34" fill-opacity="1"><g transform="translate(222.925228, 138.744384)"><g><path d="M 48.015625 -2.234375 L 48.015625 0 L 26.5625 0 L 26.5625 -2.234375 L 30.9375 -2.796875 C 31.789062 -2.898438 32.296875 -3.125 32.453125 -3.46875 C 32.617188 -3.8125 32.703125 -4.890625 32.703125 -6.703125 L 32.703125 -26.796875 C 32.703125 -30.460938 32.195312 -33.132812 31.1875 -34.8125 C 30.175781 -36.488281 28.660156 -37.328125 26.640625 -37.328125 C 25.785156 -37.328125 24.769531 -37.097656 23.59375 -36.640625 C 22.425781 -36.191406 21.269531 -35.378906 20.125 -34.203125 C 18.988281 -33.035156 17.992188 -31.3125 17.140625 -29.03125 L 17.140625 -6.703125 C 17.140625 -4.890625 17.21875 -3.8125 17.375 -3.46875 C 17.539062 -3.125 18.050781 -2.898438 18.90625 -2.796875 L 23.28125 -2.234375 L 23.28125 0 L 1.828125 0 L 1.828125 -2.234375 L 6.21875 -2.796875 C 7.070312 -2.898438 7.578125 -3.125 7.734375 -3.46875 C 7.890625 -3.8125 7.96875 -4.890625 7.96875 -6.703125 L 7.96875 -33.734375 C 7.96875 -35.546875 7.890625 -36.625 7.734375 -36.96875 C 7.578125 -37.3125 7.070312 -37.535156 6.21875 -37.640625 L 1.828125 -38.203125 L 1.828125 -40.4375 L 16.671875 -40.4375 L 16.671875 -33.421875 C 18.160156 -36.128906 20.070312 -38.109375 22.40625 -39.359375 C 24.75 -40.609375 27.113281 -41.234375 29.5 -41.234375 C 32.375 -41.234375 34.804688 -40.5 36.796875 -39.03125 C 38.796875 -37.570312 40.222656 -35.488281 41.078125 -32.78125 C 42.503906 -35.757812 44.441406 -37.910156 46.890625 -39.234375 C 49.335938 -40.566406 51.785156 -41.234375 54.234375 -41.234375 C 58.003906 -41.234375 61.003906 -39.984375 63.234375 -37.484375 C 65.472656 -34.984375 66.59375 -31.445312 66.59375 -26.875 L 66.59375 -6.703125 C 66.59375 -4.890625 66.671875 -3.8125 66.828125 -3.46875 C 66.984375 -3.125 67.488281 -2.898438 68.34375 -2.796875 L 72.734375 -2.234375 L 72.734375 0 L 51.28125 0 L 51.28125 -2.234375 L 55.671875 -2.796875 C 56.515625 -2.898438 57.015625 -3.125 57.171875 -3.46875 C 57.335938 -3.8125 57.421875 -4.890625 57.421875 -6.703125 L 57.421875 -26.796875 C 57.421875 -30.460938 56.914062 -33.132812 55.90625 -34.8125 C 54.894531 -36.488281 53.378906 -37.328125 51.359375 -37.328125 C 50.503906 -37.328125 49.492188 -37.097656 48.328125 -36.640625 C 47.160156 -36.191406 45.988281 -35.351562 44.8125 -34.125 C 43.644531 -32.90625 42.632812 -31.128906 41.78125 -28.796875 C 41.84375 -28.523438 41.875 -28.21875 41.875 -27.875 C 41.875 -27.53125 41.875 -27.195312 41.875 -26.875 L 41.875 -6.703125 C 41.875 -4.890625 41.953125 -3.8125 42.109375 -3.46875 C 42.265625 -3.125 42.769531 -2.898438 43.625 -2.796875 Z M 48.015625 -2.234375 "/></g></g></g><g fill="#e55f34" fill-opacity="1"><g transform="translate(296.535667, 138.744384)"><g><path d="M 37.796875 -9.484375 C 36.835938 -5.765625 35.054688 -3.117188 32.453125 -1.546875 C 29.847656 0.015625 26.816406 0.796875 23.359375 0.796875 C 16.984375 0.796875 12.203125 -1.046875 9.015625 -4.734375 C 5.828125 -8.429688 4.234375 -13.335938 4.234375 -19.453125 L 4.234375 -21.046875 C 4.234375 -27.160156 5.734375 -32.050781 8.734375 -35.71875 C 11.734375 -39.394531 16.078125 -41.234375 21.765625 -41.234375 C 24.960938 -41.234375 27.796875 -40.609375 30.265625 -39.359375 C 32.734375 -38.109375 34.671875 -36.3125 36.078125 -33.96875 C 37.492188 -31.632812 38.203125 -28.789062 38.203125 -25.4375 C 38.203125 -24.644531 38.160156 -23.796875 38.078125 -22.890625 C 38.003906 -21.984375 37.859375 -21.078125 37.640625 -20.171875 L 14.03125 -20.171875 L 14.03125 -17.859375 C 14.03125 -12.222656 14.828125 -8.171875 16.421875 -5.703125 C 18.023438 -3.234375 20.609375 -2 24.171875 -2 C 26.453125 -2 28.390625 -2.675781 29.984375 -4.03125 C 31.578125 -5.382812 32.484375 -7.679688 32.703125 -10.921875 Z M 21.765625 -38.4375 C 19.160156 -38.4375 17.21875 -37.238281 15.9375 -34.84375 C 14.664062 -32.457031 14.03125 -28.5 14.03125 -22.96875 L 28.46875 -22.96875 C 28.6875 -24.03125 28.832031 -25.023438 28.90625 -25.953125 C 28.988281 -26.890625 29.03125 -27.753906 29.03125 -28.546875 C 29.03125 -31.953125 28.363281 -34.453125 27.03125 -36.046875 C 25.707031 -37.640625 23.953125 -38.4375 21.765625 -38.4375 Z M 21.765625 -38.4375 "/></g></g></g><g fill="#e55f34" fill-opacity="1"><g transform="translate(338.7241, 138.744384)"><g><path d="M 45.375 -2.234375 L 45.375 0 L 30.546875 0 L 30.546875 -6.625 C 29.054688 -4.175781 27.394531 -2.328125 25.5625 -1.078125 C 23.726562 0.171875 21.5625 0.796875 19.0625 0.796875 C 14.59375 0.796875 11.039062 -0.96875 8.40625 -4.5 C 5.78125 -8.039062 4.46875 -13 4.46875 -19.375 L 4.46875 -20.96875 C 4.46875 -27.132812 5.992188 -32.050781 9.046875 -35.71875 C 12.109375 -39.394531 16.296875 -41.234375 21.609375 -41.234375 C 24.796875 -41.234375 27.613281 -40.4375 30.0625 -38.84375 L 30.0625 -52.3125 C 30.0625 -54.125 29.984375 -55.203125 29.828125 -55.546875 C 29.671875 -55.890625 29.164062 -56.113281 28.3125 -56.21875 L 23.921875 -56.78125 L 23.921875 -59.015625 L 39.234375 -59.015625 L 39.234375 -6.703125 C 39.234375 -4.890625 39.3125 -3.8125 39.46875 -3.46875 C 39.632812 -3.125 40.140625 -2.898438 40.984375 -2.796875 Z M 14.28125 -16.984375 C 14.28125 -12.035156 14.890625 -8.421875 16.109375 -6.140625 C 17.328125 -3.859375 19.003906 -2.71875 21.140625 -2.71875 C 22.460938 -2.71875 23.851562 -3.257812 25.3125 -4.34375 C 26.78125 -5.4375 28.363281 -7.65625 30.0625 -11 L 30.0625 -35.09375 C 28.039062 -37.113281 25.570312 -38.125 22.65625 -38.125 C 19.726562 -38.125 17.597656 -36.804688 16.265625 -34.171875 C 14.941406 -31.535156 14.28125 -27.929688 14.28125 -23.359375 Z M 14.28125 -16.984375 "/></g></g></g><g clip-path="url(#e5ab540291)"><path fill="#ffffff" d="M 132.828125 83.335938 L 145.328125 83.335938 L 145.328125 142.433594 L 132.828125 142.433594 Z M 132.828125 83.335938 " fill-opacity="1" fill-rule="nonzero"/></g><g clip-path="url(#a7bff3713a)"><path fill="#ffffff" d="M 146.992188 70.078125 C 146.992188 70.59375 146.941406 71.101562 146.839844 71.609375 C 146.742188 72.113281 146.589844 72.605469 146.394531 73.082031 C 146.195312 73.558594 145.957031 74.011719 145.667969 74.4375 C 145.382812 74.867188 145.058594 75.265625 144.691406 75.628906 C 144.328125 75.992188 143.929688 76.320312 143.503906 76.605469 C 143.074219 76.890625 142.621094 77.132812 142.144531 77.332031 C 141.667969 77.527344 141.179688 77.675781 140.671875 77.777344 C 140.167969 77.878906 139.65625 77.929688 139.140625 77.929688 C 138.625 77.929688 138.113281 77.878906 137.609375 77.777344 C 137.101562 77.675781 136.613281 77.527344 136.136719 77.332031 C 135.660156 77.132812 135.207031 76.890625 134.777344 76.605469 C 134.351562 76.320312 133.953125 75.992188 133.589844 75.628906 C 133.222656 75.265625 132.898438 74.867188 132.613281 74.4375 C 132.328125 74.011719 132.085938 73.558594 131.886719 73.082031 C 131.691406 72.605469 131.539062 72.113281 131.441406 71.609375 C 131.339844 71.101562 131.289062 70.59375 131.289062 70.078125 C 131.289062 69.5625 131.339844 69.050781 131.441406 68.546875 C 131.539062 68.039062 131.691406 67.546875 131.886719 67.070312 C 132.085938 66.597656 132.328125 66.144531 132.613281 65.714844 C 132.898438 65.285156 133.222656 64.890625 133.589844 64.523438 C 133.953125 64.160156 134.351562 63.835938 134.777344 63.546875 C 135.207031 63.261719 135.660156 63.019531 136.136719 62.824219 C 136.613281 62.625 137.101562 62.476562 137.609375 62.375 C 138.113281 62.277344 138.625 62.226562 139.140625 62.226562 C 139.65625 62.226562 140.167969 62.277344 140.671875 62.375 C 141.179688 62.476562 141.667969 62.625 142.144531 62.824219 C 142.621094 63.019531 143.074219 63.261719 143.503906 63.546875 C 143.929688 63.835938 144.328125 64.160156 144.691406 64.523438 C 145.058594 64.890625 145.382812 65.285156 145.667969 65.714844 C 145.957031 66.144531 146.195312 66.597656 146.394531 67.070312 C 146.589844 67.546875 146.742188 68.039062 146.839844 68.546875 C 146.941406 69.050781 146.992188 69.5625 146.992188 70.078125 Z M 146.992188 70.078125 " fill-opacity="1" fill-rule="nonzero"/></g><g fill="#ffffff" fill-opacity="1"><g transform="translate(154.393806, 142.856955)"><g><path d="M 26.8125 -47.15625 C 23.164062 -47.15625 20.328125 -45.644531 18.296875 -42.625 C 16.265625 -39.601562 15.25 -34.632812 15.25 -27.71875 L 15.25 -21.734375 C 15.25 -14.753906 16.265625 -9.75 18.296875 -6.71875 C 20.328125 -3.695312 23.632812 -2.1875 28.21875 -2.1875 C 31.34375 -2.1875 33.867188 -2.984375 35.796875 -4.578125 C 37.722656 -6.179688 39.019531 -8.941406 39.6875 -12.859375 L 44.96875 -11.359375 C 43.769531 -6.847656 41.570312 -3.660156 38.375 -1.796875 C 35.1875 0.0664062 31.632812 1 27.71875 1 C 20.539062 1 15.171875 -1.242188 11.609375 -5.734375 C 8.054688 -10.222656 6.28125 -16.222656 6.28125 -23.734375 L 6.28125 -25.71875 C 6.28125 -33.164062 8.039062 -39.128906 11.5625 -43.609375 C 15.082031 -48.097656 20.164062 -50.34375 26.8125 -50.34375 C 31.070312 -50.34375 34.613281 -49.507812 37.4375 -47.84375 C 40.257812 -46.1875 42.269531 -43.945312 43.46875 -41.125 C 44.664062 -38.300781 45 -35.195312 44.46875 -31.8125 L 36.59375 -30.609375 C 37.320312 -35.921875 36.835938 -40.003906 35.140625 -42.859375 C 33.453125 -45.722656 30.675781 -47.15625 26.8125 -47.15625 Z M 26.8125 -47.15625 "/></g></g></g><g fill="#ffffff" fill-opacity="1"><g transform="translate(204.445716, 142.856955)"><g/></g></g><g fill="#ffffff" fill-opacity="1"><g transform="translate(227.076472, 142.856955)"><g/></g></g></svg>