<svg xmlns="http://www.w3.org/2000/svg" xmlns:xlink="http://www.w3.org/1999/xlink" width="604" zoomAndPan="magnify" viewBox="0 0 452.88 248.250006" height="331" preserveAspectRatio="xMidYMid meet" version="1.0"><defs><g/><clipPath id="6619a36ea0"><path d="M 0.949219 0.449219 L 216.640625 0.449219 L 216.640625 244.960938 L 0.949219 244.960938 Z M 0.949219 0.449219 " clip-rule="nonzero"/></clipPath><clipPath id="4e1dd1c584"><path d="M 4 2.585938 L 97 2.585938 L 97 151 L 4 151 Z M 4 2.585938 " clip-rule="nonzero"/></clipPath><clipPath id="b1e0d0c365"><path d="M 216.640625 10 L 451 10 L 451 243 L 216.640625 243 Z M 216.640625 10 " clip-rule="nonzero"/></clipPath></defs><g clip-path="url(#6619a36ea0)"><path fill="#ffffff" d="M 0.949219 0.449219 L 216.640625 0.449219 L 216.640625 244.785156 L 0.949219 244.785156 Z M 0.949219 0.449219 " fill-opacity="1" fill-rule="nonzero"/></g><g clip-path="url(#4e1dd1c584)"><path fill="#e55f34" d="M 91.171875 102.609375 C 90.15625 99.695312 89.09375 96.628906 88.167969 93.667969 C 87.734375 92.246094 86.492188 91.304688 85.101562 91.183594 C 82.917969 85.515625 78.941406 75.839844 73.914062 65.148438 C 67.84375 52.210938 60.246094 37.808594 52.46875 27.234375 C 48.039062 21.222656 43.523438 16.449219 39.128906 13.789062 C 40.472656 12.039062 42.101562 10.886719 44.03125 10.511719 C 44.257812 10.46875 44.464844 10.4375 44.691406 10.410156 C 46.46875 10.214844 48.027344 10.066406 49.714844 10.019531 C 51.375 9.976562 53.15625 10.035156 55.382812 10.273438 L 55.503906 12.398438 C 58.75 13.894531 61.171875 15.433594 63.503906 15.3125 C 67.421875 15.105469 71.253906 13.339844 71 8.671875 C 70.742188 4.007812 66.75 2.660156 62.847656 2.871094 C 60.515625 2.992188 58.269531 4.785156 55.203125 6.625 L 55.25 7.613281 C 53.082031 7.402344 51.300781 7.34375 49.65625 7.386719 C 47.90625 7.433594 46.277344 7.597656 44.421875 7.792969 C 44.109375 7.820312 43.808594 7.867188 43.523438 7.925781 C 40.773438 8.464844 38.558594 10.125 36.777344 12.605469 C 33.96875 11.410156 31.214844 11.140625 28.582031 12.097656 C 28.3125 12.203125 28.03125 12.308594 27.746094 12.441406 C 26.054688 13.234375 24.589844 13.9375 23.066406 14.804688 C 21.628906 15.613281 20.148438 16.601562 18.398438 17.902344 L 17.933594 17.035156 C 14.34375 17.050781 11.503906 16.675781 9.453125 17.78125 C 6 19.636719 3.292969 22.867188 5.492188 26.980469 C 7.707031 31.109375 11.894531 30.628906 15.347656 28.773438 C 17.410156 27.667969 18.683594 25.09375 20.671875 22.132812 L 19.667969 20.265625 C 21.449219 18.902344 22.929688 17.929688 24.378906 17.109375 C 25.847656 16.269531 27.253906 15.597656 28.882812 14.835938 C 29.078125 14.746094 29.285156 14.65625 29.496094 14.582031 C 31.351562 13.910156 33.324219 14.042969 35.386719 14.835938 C 32.996094 19.398438 31.621094 25.8125 30.960938 33.246094 C 29.792969 46.332031 30.78125 62.589844 32.308594 76.78125 C 33.546875 88.386719 35.148438 98.617188 36.226562 104.628906 C 34.566406 105.257812 33.578125 107.039062 34.027344 108.804688 C 34.773438 111.824219 35.449219 114.996094 36.105469 118.015625 C 40.578125 138.835938 43.570312 152.816406 74.078125 149.855469 C 74.167969 149.839844 74.257812 149.8125 74.347656 149.796875 C 74.46875 149.78125 74.574219 149.753906 74.691406 149.722656 C 74.8125 149.691406 74.917969 149.648438 75.019531 149.601562 C 75.109375 149.574219 75.199219 149.558594 75.277344 149.511719 C 102.867188 136.230469 98.171875 122.726562 91.171875 102.609375 Z M 72.734375 142.828125 C 49.164062 144.921875 46.695312 133.480469 43.0625 116.519531 C 42.433594 113.605469 41.773438 110.539062 40.921875 107.097656 C 40.652344 106.007812 39.890625 105.183594 38.949219 104.75 C 37.886719 98.871094 36.226562 88.433594 34.953125 76.511719 C 33.445312 62.441406 32.472656 46.363281 33.609375 33.484375 C 34.25 26.292969 35.539062 20.160156 37.722656 16.003906 C 41.746094 18.410156 46.035156 22.988281 50.3125 28.804688 C 57.988281 39.214844 65.496094 53.464844 71.492188 66.269531 C 76.425781 76.78125 80.34375 86.292969 82.527344 91.949219 C 81.4375 92.832031 80.929688 94.324219 81.363281 95.761719 C 82.425781 99.15625 83.457031 102.101562 84.429688 104.929688 C 90.140625 121.320312 93.96875 132.375 72.734375 142.828125 Z M 72.734375 142.828125 " fill-opacity="1" fill-rule="evenodd"/></g><path fill="#e55f34" d="M 445 24.390625 C 440.003906 17.347656 432.570312 12.667969 424.058594 11.214844 C 415.550781 9.765625 406.980469 11.710938 399.9375 16.707031 C 392.890625 21.699219 388.210938 29.132812 386.761719 37.644531 C 385.308594 46.152344 387.253906 54.722656 392.25 61.765625 C 395.613281 66.523438 400.25 70.292969 405.664062 72.65625 L 407.921875 73.640625 L 406.5625 75.707031 C 406.515625 75.78125 406.488281 75.839844 406.472656 75.914062 L 404.453125 87.761719 C 404.421875 87.953125 404.496094 88.121094 404.558594 88.179688 C 404.617188 88.269531 404.738281 88.375 404.917969 88.417969 L 407.742188 88.898438 L 407.382812 90.960938 C 399.546875 135.574219 375.035156 174.9375 338.347656 201.8125 C 301.558594 228.761719 256.464844 240.21875 211.375 234.074219 C 156.066406 226.535156 107.445312 192.691406 80.898438 143.367188 C 79.820312 143.949219 78.773438 144.578125 77.699219 145.21875 C 76.859375 145.714844 76.007812 146.222656 75.125 146.714844 C 80.601562 156.871094 87.074219 166.53125 94.375 175.476562 C 123.582031 211.265625 164.816406 234.417969 210.492188 240.636719 C 257.289062 247.023438 304.097656 235.121094 342.3125 207.136719 C 380.417969 179.230469 405.859375 138.355469 413.980469 92.039062 L 414.339844 90.003906 L 416.386719 90.347656 C 416.703125 90.390625 416.851562 90.347656 416.941406 90.289062 L 416.972656 90.273438 C 417.046875 90.226562 417.164062 90.109375 417.210938 89.914062 L 419.230469 78.070312 C 419.246094 77.992188 419.246094 77.917969 419.214844 77.84375 L 418.617188 75.453125 L 421.082031 75.273438 C 426.960938 74.839844 432.585938 72.820312 437.339844 69.453125 C 444.386719 64.460938 449.066406 57.027344 450.515625 48.515625 C 451.9375 40.019531 449.976562 31.453125 445 24.390625 Z M 418.960938 55.964844 C 411.992188 55.964844 406.335938 50.3125 406.335938 43.339844 C 406.335938 36.371094 411.992188 30.71875 418.960938 30.71875 C 425.929688 30.71875 431.582031 36.371094 431.582031 43.339844 C 431.582031 50.3125 425.929688 55.964844 418.960938 55.964844 Z M 418.960938 55.964844 " fill-opacity="1" fill-rule="nonzero"/><g fill="#ffffff" fill-opacity="1"><g transform="translate(223.191991, 134.008562)"><g><path d="M 45.015625 -2.09375 L 45.015625 0 L 24.90625 0 L 24.90625 -2.09375 L 29.015625 -2.625 C 29.816406 -2.71875 30.289062 -2.925781 30.4375 -3.25 C 30.582031 -3.570312 30.65625 -4.582031 30.65625 -6.28125 L 30.65625 -25.125 C 30.65625 -28.5625 30.179688 -31.066406 29.234375 -32.640625 C 28.285156 -34.210938 26.867188 -35 24.984375 -35 C 24.179688 -35 23.226562 -34.785156 22.125 -34.359375 C 21.03125 -33.929688 19.945312 -33.171875 18.875 -32.078125 C 17.8125 -30.984375 16.878906 -29.363281 16.078125 -27.21875 L 16.078125 -6.28125 C 16.078125 -4.582031 16.148438 -3.570312 16.296875 -3.25 C 16.453125 -2.925781 16.925781 -2.71875 17.71875 -2.625 L 21.84375 -2.09375 L 21.84375 0 L 1.71875 0 L 1.71875 -2.09375 L 5.828125 -2.625 C 6.628906 -2.71875 7.101562 -2.925781 7.25 -3.25 C 7.40625 -3.570312 7.484375 -4.582031 7.484375 -6.28125 L 7.484375 -31.625 C 7.484375 -33.320312 7.40625 -34.332031 7.25 -34.65625 C 7.101562 -34.976562 6.628906 -35.191406 5.828125 -35.296875 L 1.71875 -35.8125 L 1.71875 -37.90625 L 15.625 -37.90625 L 15.625 -31.328125 C 17.019531 -33.867188 18.8125 -35.722656 21 -36.890625 C 23.195312 -38.066406 25.421875 -38.65625 27.671875 -38.65625 C 30.359375 -38.65625 32.632812 -37.96875 34.5 -36.59375 C 36.375 -35.226562 37.710938 -33.273438 38.515625 -30.734375 C 39.859375 -33.523438 41.675781 -35.539062 43.96875 -36.78125 C 46.257812 -38.03125 48.550781 -38.65625 50.84375 -38.65625 C 54.382812 -38.65625 57.203125 -37.484375 59.296875 -35.140625 C 61.390625 -32.796875 62.4375 -29.484375 62.4375 -25.203125 L 62.4375 -6.28125 C 62.4375 -4.582031 62.507812 -3.570312 62.65625 -3.25 C 62.8125 -2.925781 63.289062 -2.71875 64.09375 -2.625 L 68.203125 -2.09375 L 68.203125 0 L 48.078125 0 L 48.078125 -2.09375 L 52.203125 -2.625 C 52.992188 -2.71875 53.460938 -2.925781 53.609375 -3.25 C 53.765625 -3.570312 53.84375 -4.582031 53.84375 -6.28125 L 53.84375 -25.125 C 53.84375 -28.5625 53.367188 -31.066406 52.421875 -32.640625 C 51.472656 -34.210938 50.050781 -35 48.15625 -35 C 47.363281 -35 46.414062 -34.785156 45.3125 -34.359375 C 44.21875 -33.929688 43.117188 -33.144531 42.015625 -32 C 40.921875 -30.851562 39.976562 -29.1875 39.1875 -27 C 39.238281 -26.75 39.265625 -26.460938 39.265625 -26.140625 C 39.265625 -25.816406 39.265625 -25.503906 39.265625 -25.203125 L 39.265625 -6.28125 C 39.265625 -4.582031 39.335938 -3.570312 39.484375 -3.25 C 39.628906 -2.925781 40.101562 -2.71875 40.90625 -2.625 Z M 45.015625 -2.09375 "/></g></g></g><g fill="#ffffff" fill-opacity="1"><g transform="translate(292.208414, 134.008562)"><g><path d="M 35.453125 -8.90625 C 34.546875 -5.414062 32.867188 -2.929688 30.421875 -1.453125 C 27.984375 0.015625 25.144531 0.75 21.90625 0.75 C 15.925781 0.75 11.441406 -0.976562 8.453125 -4.4375 C 5.460938 -7.90625 3.96875 -12.507812 3.96875 -18.25 L 3.96875 -19.75 C 3.96875 -25.476562 5.375 -30.0625 8.1875 -33.5 C 11 -36.9375 15.078125 -38.65625 20.421875 -38.65625 C 23.410156 -38.65625 26.0625 -38.066406 28.375 -36.890625 C 30.695312 -35.722656 32.515625 -34.039062 33.828125 -31.84375 C 35.148438 -29.65625 35.8125 -26.992188 35.8125 -23.859375 C 35.8125 -23.109375 35.773438 -22.304688 35.703125 -21.453125 C 35.628906 -20.609375 35.492188 -19.765625 35.296875 -18.921875 L 13.15625 -18.921875 L 13.15625 -16.75 C 13.15625 -11.46875 13.898438 -7.664062 15.390625 -5.34375 C 16.890625 -3.03125 19.3125 -1.875 22.65625 -1.875 C 24.800781 -1.875 26.617188 -2.507812 28.109375 -3.78125 C 29.609375 -5.050781 30.457031 -7.207031 30.65625 -10.25 Z M 20.421875 -36.046875 C 17.972656 -36.046875 16.148438 -34.921875 14.953125 -32.671875 C 13.753906 -30.429688 13.15625 -26.71875 13.15625 -21.53125 L 26.703125 -21.53125 C 26.898438 -22.53125 27.035156 -23.46875 27.109375 -24.34375 C 27.179688 -25.21875 27.21875 -26.023438 27.21875 -26.765625 C 27.21875 -29.960938 26.59375 -32.304688 25.34375 -33.796875 C 24.101562 -35.296875 22.460938 -36.046875 20.421875 -36.046875 Z M 20.421875 -36.046875 "/></g></g></g><g fill="#ffffff" fill-opacity="1"><g transform="translate(331.763871, 134.008562)"><g><path d="M 42.546875 -2.09375 L 42.546875 0 L 28.640625 0 L 28.640625 -6.203125 C 27.242188 -3.910156 25.6875 -2.175781 23.96875 -1 C 22.25 0.164062 20.21875 0.75 17.875 0.75 C 13.6875 0.75 10.359375 -0.90625 7.890625 -4.21875 C 5.421875 -7.539062 4.1875 -12.191406 4.1875 -18.171875 L 4.1875 -19.671875 C 4.1875 -25.453125 5.617188 -30.0625 8.484375 -33.5 C 11.347656 -36.9375 15.273438 -38.65625 20.265625 -38.65625 C 23.253906 -38.65625 25.894531 -37.910156 28.1875 -36.421875 L 28.1875 -49.0625 C 28.1875 -50.75 28.113281 -51.753906 27.96875 -52.078125 C 27.820312 -52.410156 27.347656 -52.625 26.546875 -52.71875 L 22.4375 -53.25 L 22.4375 -55.34375 L 36.796875 -55.34375 L 36.796875 -6.28125 C 36.796875 -4.582031 36.867188 -3.570312 37.015625 -3.25 C 37.160156 -2.925781 37.632812 -2.71875 38.4375 -2.625 Z M 13.390625 -15.921875 C 13.390625 -11.285156 13.960938 -7.894531 15.109375 -5.75 C 16.253906 -3.613281 17.820312 -2.546875 19.8125 -2.546875 C 21.0625 -2.546875 22.367188 -3.054688 23.734375 -4.078125 C 25.109375 -5.097656 26.59375 -7.175781 28.1875 -10.3125 L 28.1875 -32.90625 C 26.289062 -34.800781 23.972656 -35.75 21.234375 -35.75 C 18.492188 -35.75 16.5 -34.515625 15.25 -32.046875 C 14.007812 -29.578125 13.390625 -26.195312 13.390625 -21.90625 Z M 13.390625 -15.921875 "/></g></g></g><g fill="#e55f34" fill-opacity="1"><g transform="translate(131.786325, 137.747266)"><g><path d="M 13.640625 -54.46875 C 12.203125 -54.46875 11.019531 -54.929688 10.09375 -55.859375 C 9.164062 -56.785156 8.703125 -58 8.703125 -59.5 C 8.703125 -60.925781 9.164062 -62.085938 10.09375 -62.984375 C 11.019531 -63.890625 12.203125 -64.34375 13.640625 -64.34375 C 15.078125 -64.34375 16.257812 -63.890625 17.1875 -62.984375 C 18.113281 -62.085938 18.578125 -60.925781 18.578125 -59.5 C 18.578125 -58 18.113281 -56.785156 17.1875 -55.859375 C 16.257812 -54.929688 15.078125 -54.46875 13.640625 -54.46875 Z M 3.140625 -42 L 3.140625 -44.421875 L 17.40625 -44.421875 L 17.40625 -7.265625 C 17.40625 -5.171875 17.492188 -3.941406 17.671875 -3.578125 C 17.859375 -3.222656 18.425781 -2.988281 19.375 -2.875 L 24.3125 -2.328125 L 24.3125 0 L 3.140625 0 L 3.140625 -2.328125 L 8.078125 -2.875 C 9.035156 -2.988281 9.601562 -3.222656 9.78125 -3.578125 C 9.957031 -3.941406 10.046875 -5.171875 10.046875 -7.265625 L 10.046875 -37.15625 C 10.046875 -39.25 9.957031 -40.472656 9.78125 -40.828125 C 9.601562 -41.191406 9.035156 -41.429688 8.078125 -41.546875 Z M 3.140625 -42 "/></g></g></g><g fill="#e55f34" fill-opacity="1"><g transform="translate(158.61524, 137.747266)"><g><path d="M 24.140625 -42.4375 C 20.847656 -42.4375 18.289062 -41.078125 16.46875 -38.359375 C 14.644531 -35.640625 13.734375 -31.171875 13.734375 -24.953125 L 13.734375 -19.5625 C 13.734375 -13.28125 14.644531 -8.773438 16.46875 -6.046875 C 18.289062 -3.328125 21.265625 -1.96875 25.390625 -1.96875 C 28.203125 -1.96875 30.472656 -2.6875 32.203125 -4.125 C 33.941406 -5.5625 35.113281 -8.046875 35.71875 -11.578125 L 40.46875 -10.234375 C 39.394531 -6.160156 37.421875 -3.285156 34.546875 -1.609375 C 31.671875 0.0546875 28.472656 0.890625 24.953125 0.890625 C 18.484375 0.890625 13.648438 -1.125 10.453125 -5.15625 C 7.253906 -9.195312 5.65625 -14.597656 5.65625 -21.359375 L 5.65625 -23.15625 C 5.65625 -29.851562 7.238281 -35.21875 10.40625 -39.25 C 13.582031 -43.289062 18.160156 -45.3125 24.140625 -45.3125 C 27.960938 -45.3125 31.144531 -44.5625 33.6875 -43.0625 C 36.238281 -41.570312 38.050781 -39.554688 39.125 -37.015625 C 40.195312 -34.472656 40.492188 -31.675781 40.015625 -28.625 L 32.9375 -27.546875 C 33.59375 -32.335938 33.15625 -36.015625 31.625 -38.578125 C 30.101562 -41.148438 27.609375 -42.4375 24.140625 -42.4375 Z M 24.140625 -42.4375 "/></g></g></g><g fill="#e55f34" fill-opacity="1"><g transform="translate(203.662924, 137.747266)"><g/></g></g><g fill="#e55f34" fill-opacity="1"><g transform="translate(224.031369, 137.747266)"><g/></g></g><g clip-path="url(#b1e0d0c365)"><path fill="#ffffff" d="M 445 24.390625 C 440.003906 17.347656 432.570312 12.667969 424.058594 11.214844 C 415.550781 9.765625 406.980469 11.710938 399.9375 16.707031 C 392.890625 21.699219 388.210938 29.132812 386.761719 37.644531 C 385.308594 46.152344 387.253906 54.722656 392.25 61.765625 C 395.613281 66.523438 400.25 70.292969 405.664062 72.65625 L 407.921875 73.640625 L 406.5625 75.707031 C 406.515625 75.78125 406.488281 75.839844 406.472656 75.914062 L 404.453125 87.761719 C 404.421875 87.953125 404.496094 88.121094 404.558594 88.179688 C 404.617188 88.269531 404.738281 88.375 404.917969 88.417969 L 407.742188 88.898438 L 407.382812 90.960938 C 399.546875 135.574219 375.035156 174.9375 338.347656 201.8125 C 301.558594 228.761719 256.464844 240.21875 211.375 234.074219 C 156.066406 226.535156 107.445312 192.691406 80.898438 143.367188 C 79.820312 143.949219 78.773438 144.578125 77.699219 145.21875 C 76.859375 145.714844 76.007812 146.222656 75.125 146.714844 C 80.601562 156.871094 87.074219 166.53125 94.375 175.476562 C 123.582031 211.265625 164.816406 234.417969 210.492188 240.636719 C 257.289062 247.023438 304.097656 235.121094 342.3125 207.136719 C 380.417969 179.230469 405.859375 138.355469 413.980469 92.039062 L 414.339844 90.003906 L 416.386719 90.347656 C 416.703125 90.390625 416.851562 90.347656 416.941406 90.289062 L 416.972656 90.273438 C 417.046875 90.226562 417.164062 90.109375 417.210938 89.914062 L 419.230469 78.070312 C 419.246094 77.992188 419.246094 77.917969 419.214844 77.84375 L 418.617188 75.453125 L 421.082031 75.273438 C 426.960938 74.839844 432.585938 72.820312 437.339844 69.453125 C 444.386719 64.460938 449.066406 57.027344 450.515625 48.515625 C 451.9375 40.019531 449.976562 31.453125 445 24.390625 Z M 418.960938 55.964844 C 411.992188 55.964844 406.335938 50.3125 406.335938 43.339844 C 406.335938 36.371094 411.992188 30.71875 418.960938 30.71875 C 425.929688 30.71875 431.582031 36.371094 431.582031 43.339844 C 431.582031 50.3125 425.929688 55.964844 418.960938 55.964844 Z M 418.960938 55.964844 " fill-opacity="1" fill-rule="nonzero"/></g></svg>